<?xml version="1.0" encoding="UTF-8"?>
<!DOCTYPE svg PUBLIC "-//W3C//DTD SVG 1.1//EN" "http://www.w3.org/Graphics/SVG/1.1/DTD/svg11.dtd">
<!-- Creator: CorelDRAW X6 -->
<svg xmlns="http://www.w3.org/2000/svg" xml:space="preserve" width="43.3492mm" height="43.3492mm" version="1.1" style="shape-rendering:geometricPrecision; text-rendering:geometricPrecision; image-rendering:optimizeQuality; fill-rule:evenodd; clip-rule:evenodd"
viewBox="0 0 4335 4335"
 xmlns:xlink="http://www.w3.org/1999/xlink">
 <defs>
  <style type="text/css">
   <![CDATA[
    .fil0 {fill:#2B2A29;fill-rule:nonzero}
   ]]>
  </style>
 </defs>
 <g id="Layer_x0020_1">
  <metadata id="CorelCorpID_0Corel-Layer"/>
  <path class="fil0" d="M1386 2659l-934 0c13,83 49,149 108,198 58,49 133,73 223,73 108,0 201,-38 279,-115l244 115c-61,87 -134,151 -219,193 -85,41 -186,62 -303,62 -181,0 -329,-57 -443,-172 -114,-114 -171,-258 -171,-430 0,-177 57,-323 171,-440 114,-117 257,-175 429,-175 182,0 331,58 445,174 114,116 171,270 171,461l-1 55zm699 -1377l-8 8 8 -8zm358 -643l151 0c95,9 185,35 262,76l-105 310c-39,102 -77,193 -123,283 -141,271 -371,459 -641,595 -207,105 -196,39 -241,165 -15,42 -26,81 -36,122 48,-56 107,-103 176,-140 100,-54 213,-81 337,-81 115,0 219,23 310,69 92,46 167,111 225,195l-242 133c-46,-48 -90,-80 -135,-99 -44,-19 -96,-28 -156,-28 -109,0 -197,32 -264,97 -67,65 -101,147 -101,249 0,98 32,178 97,241 65,62 150,93 255,93 130,0 231,-44 304,-133l229 157c-124,162 -300,242 -527,242 -204,0 -364,-60 -479,-181 -119,-124 -173,-251 -173,-423 0,-52 6,-103 18,-151 2,-34 5,-67 9,-100 29,-250 153,-535 275,-741l152 -229c23,-29 35,-40 56,-71 -31,8 -25,13 -41,35 -11,14 -19,22 -33,35 -78,76 -129,160 -188,243 -22,30 -36,52 -57,87l-104 183c-15,28 -25,66 -51,85 -71,-147 -60,-433 -5,-598 61,-185 135,-306 257,-429 128,-128 242,-205 424,-261 54,-17 109,-28 164,-33zm-349 635l-8 8 8 -8zm8 -8l-8 8 8 -8zm8 -8l-8 8 8 -8zm8 -8l-8 8 8 -8zm8 -8l-8 8 8 -8zm0 0l0 0zm-1031 1193c-19,-63 -57,-115 -114,-155 -57,-40 -122,-59 -197,-59 -81,0 -152,22 -214,67 -38,28 -74,77 -107,147l631 0zm2470 -463c110,0 213,27 309,82 97,55 172,129 226,222 54,94 81,195 81,303 0,109 -27,211 -82,306 -55,95 -129,169 -223,223 -94,53 -198,80 -311,80 -167,0 -309,-59 -427,-177 -118,-118 -177,-262 -177,-430 0,-181 67,-332 200,-452 117,-105 251,-157 403,-157zm4 273c-91,0 -166,31 -226,94 -60,63 -90,143 -90,241 0,100 30,182 89,244 59,62 135,94 226,94 91,0 167,-32 228,-95 60,-63 91,-144 91,-243 0,-99 -30,-180 -89,-242 -59,-62 -135,-93 -228,-93z"/>
 </g>
</svg>
